<?xml version="1.0" encoding="UTF-8"?>
<!DOCTYPE svg PUBLIC "-//W3C//DTD SVG 1.1//EN" "http://www.w3.org/Graphics/SVG/1.1/DTD/svg11.dtd">
<svg xmlns="http://www.w3.org/2000/svg" version="1.1" width="980px" height="972px" style="shape-rendering:geometricPrecision; text-rendering:geometricPrecision; image-rendering:optimizeQuality; fill-rule:evenodd; clip-rule:evenodd" xmlns:xlink="http://www.w3.org/1999/xlink">
<g><path style="opacity:1" fill="#989898" d="M 342.5,-0.5 C 440.5,-0.5 538.5,-0.5 636.5,-0.5C 636.5,62.5 636.5,125.5 636.5,188.5C 635.501,126.002 635.168,63.3356 635.5,0.5C 538.167,0.5 440.833,0.5 343.5,0.5C 343.832,60.3357 343.499,120.002 342.5,179.5C 342.5,119.5 342.5,59.5 342.5,-0.5 Z"/></g>
<g><path style="opacity:1" fill="#010101" d="M 636.5,188.5 C 636.631,201.506 636.964,214.506 637.5,227.5C 637.281,228.675 637.614,229.675 638.5,230.5C 639.107,230.376 639.44,230.043 639.5,229.5C 639.833,229.5 640.167,229.5 640.5,229.5C 642.027,229.573 643.027,228.906 643.5,227.5C 649.17,223.663 655.17,220.33 661.5,217.5C 663.027,217.573 664.027,216.906 664.5,215.5C 665.514,214.326 666.847,213.66 668.5,213.5C 670.027,213.573 671.027,212.906 671.5,211.5C 672.514,210.326 673.847,209.66 675.5,209.5C 677.027,209.573 678.027,208.906 678.5,207.5C 681.24,205.44 684.24,203.774 687.5,202.5C 689.027,202.573 690.027,201.906 690.5,200.5C 691.514,199.326 692.847,198.66 694.5,198.5C 696.027,198.573 697.027,197.906 697.5,196.5C 702.502,192.997 707.835,189.997 713.5,187.5C 715.027,187.573 716.027,186.906 716.5,185.5C 717.514,184.326 718.847,183.66 720.5,183.5C 722.027,183.573 723.027,182.906 723.5,181.5C 726.24,179.44 729.24,177.774 732.5,176.5C 734.027,176.573 735.027,175.906 735.5,174.5C 736.514,173.326 737.847,172.66 739.5,172.5C 741.027,172.573 742.027,171.906 742.5,170.5C 743.514,169.326 744.847,168.66 746.5,168.5C 748.027,168.573 749.027,167.906 749.5,166.5C 750.514,165.326 751.847,164.66 753.5,164.5C 755.027,164.573 756.027,163.906 756.5,162.5C 763.905,157.774 771.572,153.441 779.5,149.5C 781.027,149.573 782.027,148.906 782.5,147.5C 783.514,146.326 784.847,145.66 786.5,145.5C 788.027,145.573 789.027,144.906 789.5,143.5C 790.514,142.326 791.847,141.66 793.5,141.5C 795.027,141.573 796.027,140.906 796.5,139.5C 797.514,138.326 798.847,137.66 800.5,137.5C 802.027,137.573 803.027,136.906 803.5,135.5C 804.514,134.326 805.847,133.66 807.5,133.5C 809.027,133.573 810.027,132.906 810.5,131.5C 811.514,130.326 812.847,129.66 814.5,129.5C 816.027,129.573 817.027,128.906 817.5,127.5C 818.514,126.326 819.847,125.66 821.5,125.5C 823.027,125.573 824.027,124.906 824.5,123.5C 826.181,121.992 828.181,120.992 830.5,120.5C 832.027,120.573 833.027,119.906 833.5,118.5C 834.5,117.167 835.5,117.167 836.5,118.5C 836.427,120.027 837.094,121.027 838.5,121.5C 838.427,123.027 839.094,124.027 840.5,124.5C 842.588,126.336 843.921,128.669 844.5,131.5C 844.427,133.027 845.094,134.027 846.5,134.5C 847.338,134.842 847.672,135.508 847.5,136.5C 847.427,138.027 848.094,139.027 849.5,139.5C 850.338,139.842 850.672,140.508 850.5,141.5C 850.427,143.027 851.094,144.027 852.5,144.5C 855.669,148.833 858.336,153.5 860.5,158.5C 860.427,160.027 861.094,161.027 862.5,161.5C 866.003,166.502 869.003,171.835 871.5,177.5C 871.427,179.027 872.094,180.027 873.5,180.5C 875.56,183.24 877.226,186.24 878.5,189.5C 878.427,191.027 879.094,192.027 880.5,192.5C 884.003,197.502 887.003,202.835 889.5,208.5C 889.427,210.027 890.094,211.027 891.5,211.5C 892.674,212.514 893.34,213.847 893.5,215.5C 893.427,217.027 894.094,218.027 895.5,218.5C 897.56,221.24 899.226,224.24 900.5,227.5C 900.427,229.027 901.094,230.027 902.5,230.5C 903.674,231.514 904.34,232.847 904.5,234.5C 904.427,236.027 905.094,237.027 906.5,237.5C 907.674,238.514 908.34,239.847 908.5,241.5C 908.427,243.027 909.094,244.027 910.5,244.5C 916.669,254.167 922.336,264.167 927.5,274.5C 927.427,276.027 928.094,277.027 929.5,277.5C 930.674,278.514 931.34,279.847 931.5,281.5C 931.427,283.027 932.094,284.027 933.5,284.5C 934.674,285.514 935.34,286.847 935.5,288.5C 935.427,290.027 936.094,291.027 937.5,291.5C 944.337,302.502 950.67,313.836 956.5,325.5C 956.427,327.027 957.094,328.027 958.5,328.5C 961.227,332.577 963.561,336.91 965.5,341.5C 965.427,343.027 966.094,344.027 967.5,344.5C 970.927,349.016 973.593,354.016 975.5,359.5C 975.427,361.027 976.094,362.027 977.5,362.5C 978.167,363.167 978.833,363.833 979.5,364.5C 979.5,365.833 979.5,367.167 979.5,368.5C 968.201,376.488 956.535,383.988 944.5,391C 890.975,421.926 837.642,453.093 784.5,484.5C 781.833,485.167 781.833,485.833 784.5,486.5C 785.167,486.833 785.833,487.167 786.5,487.5C 787.035,489.446 788.368,490.446 790.5,490.5C 792.483,491.471 794.483,492.471 796.5,493.5C 796.821,495.048 797.821,495.715 799.5,495.5C 800.167,495.833 800.833,496.167 801.5,496.5C 801.821,498.048 802.821,498.715 804.5,498.5C 805.167,498.833 805.833,499.167 806.5,499.5C 806.821,501.048 807.821,501.715 809.5,501.5C 810.167,501.833 810.833,502.167 811.5,502.5C 811.821,504.048 812.821,504.715 814.5,504.5C 817.661,505.913 820.661,507.58 823.5,509.5C 823.821,511.048 824.821,511.715 826.5,511.5C 827.833,512.167 829.167,512.833 830.5,513.5C 830.821,515.048 831.821,515.715 833.5,515.5C 834.167,515.833 834.833,516.167 835.5,516.5C 835.821,518.048 836.821,518.715 838.5,518.5C 841.661,519.913 844.661,521.58 847.5,523.5C 847.821,525.048 848.821,525.715 850.5,525.5C 851.833,526.167 853.167,526.833 854.5,527.5C 854.821,529.048 855.821,529.715 857.5,529.5C 858.167,529.833 858.833,530.167 859.5,530.5C 859.821,532.048 860.821,532.715 862.5,532.5C 863.833,533.167 865.167,533.833 866.5,534.5C 866.821,536.048 867.821,536.715 869.5,536.5C 870.833,537.167 872.167,537.833 873.5,538.5C 873.821,540.048 874.821,540.715 876.5,540.5C 877.167,540.833 877.833,541.167 878.5,541.5C 878.821,543.048 879.821,543.715 881.5,543.5C 884.661,544.913 887.661,546.58 890.5,548.5C 890.821,550.048 891.821,550.715 893.5,550.5C 896.661,551.913 899.661,553.58 902.5,555.5C 902.821,557.048 903.821,557.715 905.5,557.5C 906.167,557.833 906.833,558.167 907.5,558.5C 907.821,560.048 908.821,560.715 910.5,560.5C 913.661,561.913 916.661,563.58 919.5,565.5C 919.821,567.048 920.821,567.715 922.5,567.5C 934.999,574.582 947.332,581.915 959.5,589.5C 959.821,591.048 960.821,591.715 962.5,591.5C 964.332,592.248 965.999,593.248 967.5,594.5C 967.821,596.048 968.821,596.715 970.5,596.5C 971.71,596.932 972.71,597.599 973.5,598.5C 974.035,600.446 975.368,601.446 977.5,601.5C 978.167,601.833 978.833,602.167 979.5,602.5C 979.5,603.833 979.5,605.167 979.5,606.5C 945.027,666.771 910.527,727.104 876,787.5C 863.392,809.063 850.559,830.396 837.5,851.5C 835.901,852.562 834.234,852.562 832.5,851.5C 822.343,846.924 812.677,841.591 803.5,835.5C 803.027,834.094 802.027,833.427 800.5,833.5C 797.24,832.226 794.24,830.56 791.5,828.5C 791.027,827.094 790.027,826.427 788.5,826.5C 784.345,825.258 780.678,823.258 777.5,820.5C 777.027,819.094 776.027,818.427 774.5,818.5C 772.847,818.34 771.514,817.674 770.5,816.5C 770.027,815.094 769.027,814.427 767.5,814.5C 757.167,809.336 747.167,803.669 737.5,797.5C 737.027,796.094 736.027,795.427 734.5,795.5C 732.847,795.34 731.514,794.674 730.5,793.5C 730.027,792.094 729.027,791.427 727.5,791.5C 724.24,790.226 721.24,788.56 718.5,786.5C 718.027,785.094 717.027,784.427 715.5,784.5C 711.345,783.258 707.678,781.258 704.5,778.5C 704.027,777.094 703.027,776.427 701.5,776.5C 695.835,774.003 690.502,771.003 685.5,767.5C 685.027,766.094 684.027,765.427 682.5,765.5C 680.847,765.34 679.514,764.674 678.5,763.5C 678.027,762.094 677.027,761.427 675.5,761.5C 673.847,761.34 672.514,760.674 671.5,759.5C 671.027,758.094 670.027,757.427 668.5,757.5C 664.665,755.75 660.999,753.75 657.5,751.5C 657.027,750.094 656.027,749.427 654.5,749.5C 649.368,747.1 644.368,744.434 639.5,741.5C 639.44,740.957 639.107,740.624 638.5,740.5C 637.614,741.325 637.281,742.325 637.5,743.5C 637.751,749.892 637.418,756.225 636.5,762.5C 635.501,831.665 635.167,900.998 635.5,970.5C 538.167,970.5 440.833,970.5 343.5,970.5C 343.832,907.664 343.499,844.998 342.5,782.5C 342.34,769.161 342.007,755.828 341.5,742.5C 341.289,740.576 340.623,740.243 339.5,741.5C 275.194,778.991 210.528,815.991 145.5,852.5C 143.678,852.169 142.011,851.502 140.5,850.5C 140.715,848.821 140.048,847.821 138.5,847.5C 138.167,846.833 137.833,846.167 137.5,845.5C 137.715,843.821 137.048,842.821 135.5,842.5C 135.167,841.833 134.833,841.167 134.5,840.5C 134.715,838.821 134.048,837.821 132.5,837.5C 130.58,834.661 128.913,831.661 127.5,828.5C 127.715,826.821 127.048,825.821 125.5,825.5C 125.167,824.833 124.833,824.167 124.5,823.5C 124.715,821.821 124.048,820.821 122.5,820.5C 120.58,817.661 118.913,814.661 117.5,811.5C 117.715,809.821 117.048,808.821 115.5,808.5C 114.833,807.167 114.167,805.833 113.5,804.5C 113.715,802.821 113.048,801.821 111.5,801.5C 109.58,798.661 107.913,795.661 106.5,792.5C 106.715,790.821 106.048,789.821 104.5,789.5C 102.58,786.661 100.913,783.661 99.5,780.5C 99.7148,778.821 99.0481,777.821 97.5,777.5C 96.8333,776.167 96.1667,774.833 95.5,773.5C 95.7148,771.821 95.0481,770.821 93.5,770.5C 90.5,765.167 87.5,759.833 84.5,754.5C 84.7148,752.821 84.0481,751.821 82.5,751.5C 81.8333,750.167 81.1667,748.833 80.5,747.5C 80.7148,745.821 80.0481,744.821 78.5,744.5C 77.8333,743.167 77.1667,741.833 76.5,740.5C 76.7148,738.821 76.0481,737.821 74.5,737.5C 69.9135,729.996 65.5801,722.329 61.5,714.5C 61.7148,712.821 61.0481,711.821 59.5,711.5C 58.8333,710.167 58.1667,708.833 57.5,707.5C 57.7148,705.821 57.0481,704.821 55.5,704.5C 54.8333,703.167 54.1667,701.833 53.5,700.5C 53.7148,698.821 53.0481,697.821 51.5,697.5C 50.8333,696.167 50.1667,694.833 49.5,693.5C 49.7148,691.821 49.0481,690.821 47.5,690.5C 46.8333,689.167 46.1667,687.833 45.5,686.5C 45.7148,684.821 45.0481,683.821 43.5,683.5C 42.8333,682.167 42.1667,680.833 41.5,679.5C 41.7148,677.821 41.0481,676.821 39.5,676.5C 38.8333,675.167 38.1667,673.833 37.5,672.5C 37.7148,670.821 37.0481,669.821 35.5,669.5C 30.2342,660.634 25.2342,651.634 20.5,642.5C 20.7148,640.821 20.0481,639.821 18.5,639.5C 15.9123,635.326 13.579,630.993 11.5,626.5C 11.7148,624.821 11.0481,623.821 9.5,623.5C 6.40392,617.633 3.07059,611.967 -0.5,606.5C -0.5,605.167 -0.5,603.833 -0.5,602.5C 0.166667,602.167 0.833333,601.833 1.5,601.5C 3.02694,601.573 4.02694,600.906 4.5,599.5C 4.97306,598.094 5.97306,597.427 7.5,597.5C 9.02694,597.573 10.0269,596.906 10.5,595.5C 12.0269,595.573 13.0269,594.906 13.5,593.5C 14.8993,592.11 16.5659,591.11 18.5,590.5C 20.0269,590.573 21.0269,589.906 21.5,588.5C 21.8417,587.662 22.5084,587.328 23.5,587.5C 25.0269,587.573 26.0269,586.906 26.5,585.5C 26.8417,584.662 27.5084,584.328 28.5,584.5C 30.0269,584.573 31.0269,583.906 31.5,582.5C 31.8417,581.662 32.5084,581.328 33.5,581.5C 35.0269,581.573 36.0269,580.906 36.5,579.5C 36.8417,578.662 37.5084,578.328 38.5,578.5C 40.0269,578.573 41.0269,577.906 41.5,576.5C 41.8417,575.662 42.5084,575.328 43.5,575.5C 45.0269,575.573 46.0269,574.906 46.5,573.5C 46.8417,572.662 47.5084,572.328 48.5,572.5C 50.0269,572.573 51.0269,571.906 51.5,570.5C 51.8417,569.662 52.5084,569.328 53.5,569.5C 55.0269,569.573 56.0269,568.906 56.5,567.5C 59.2402,565.44 62.2402,563.774 65.5,562.5C 67.0269,562.573 68.0269,561.906 68.5,560.5C 71.2402,558.44 74.2402,556.774 77.5,555.5C 79.0269,555.573 80.0269,554.906 80.5,553.5C 83.2402,551.44 86.2402,549.774 89.5,548.5C 91.0269,548.573 92.0269,547.906 92.5,546.5C 95.2402,544.44 98.2402,542.774 101.5,541.5C 103.027,541.573 104.027,540.906 104.5,539.5C 105.514,538.326 106.847,537.66 108.5,537.5C 110.027,537.573 111.027,536.906 111.5,535.5C 114.24,533.44 117.24,531.774 120.5,530.5C 122.027,530.573 123.027,529.906 123.5,528.5C 126.24,526.44 129.24,524.774 132.5,523.5C 134.027,523.573 135.027,522.906 135.5,521.5C 136.514,520.326 137.847,519.66 139.5,519.5C 141.027,519.573 142.027,518.906 142.5,517.5C 142.842,516.662 143.508,516.328 144.5,516.5C 146.027,516.573 147.027,515.906 147.5,514.5C 150.24,512.44 153.24,510.774 156.5,509.5C 158.027,509.573 159.027,508.906 159.5,507.5C 162.24,505.44 165.24,503.774 168.5,502.5C 170.027,502.573 171.027,501.906 171.5,500.5C 171.842,499.662 172.508,499.328 173.5,499.5C 175.027,499.573 176.027,498.906 176.5,497.5C 176.842,496.662 177.508,496.328 178.5,496.5C 180.027,496.573 181.027,495.906 181.5,494.5C 181.842,493.662 182.508,493.328 183.5,493.5C 185.027,493.573 186.027,492.906 186.5,491.5C 188.663,489.917 190.996,488.584 193.5,487.5C 196.682,486.86 197.015,485.86 194.5,484.5C 189.963,482.07 185.63,479.403 181.5,476.5C 181.027,475.094 180.027,474.427 178.5,474.5C 177.508,474.672 176.842,474.338 176.5,473.5C 176.027,472.094 175.027,471.427 173.5,471.5C 172.508,471.672 171.842,471.338 171.5,470.5C 171.027,469.094 170.027,468.427 168.5,468.5C 165.24,467.226 162.24,465.56 159.5,463.5C 159.027,462.094 158.027,461.427 156.5,461.5C 155.508,461.672 154.842,461.338 154.5,460.5C 154.027,459.094 153.027,458.427 151.5,458.5C 148.24,457.226 145.24,455.56 142.5,453.5C 142.027,452.094 141.027,451.427 139.5,451.5C 133.835,449.003 128.502,446.003 123.5,442.5C 123.027,441.094 122.027,440.427 120.5,440.5C 110.833,435.669 101.5,430.336 92.5,424.5C 92.0269,423.094 91.0269,422.427 89.5,422.5C 86.2402,421.226 83.2402,419.56 80.5,417.5C 80.0269,416.094 79.0269,415.427 77.5,415.5C 76.5084,415.672 75.8417,415.338 75.5,414.5C 75.0269,413.094 74.0269,412.427 72.5,412.5C 69.2402,411.226 66.2402,409.56 63.5,407.5C 63.0269,406.094 62.0269,405.427 60.5,405.5C 55.4997,403.336 50.833,400.669 46.5,397.5C 46.0269,396.094 45.0269,395.427 43.5,395.5C 42.5084,395.672 41.8417,395.338 41.5,394.5C 41.0269,393.094 40.0269,392.427 38.5,392.5C 37.5084,392.672 36.8417,392.338 36.5,391.5C 36.0269,390.094 35.0269,389.427 33.5,389.5C 32.5084,389.672 31.8417,389.338 31.5,388.5C 31.0269,387.094 30.0269,386.427 28.5,386.5C 27.5084,386.672 26.8417,386.338 26.5,385.5C 26.0269,384.094 25.0269,383.427 23.5,383.5C 21.5659,382.89 19.8993,381.89 18.5,380.5C 18.0269,379.094 17.0269,378.427 15.5,378.5C 14.5084,378.672 13.8417,378.338 13.5,377.5C 13.0269,376.094 12.0269,375.427 10.5,375.5C 10.0269,374.094 9.02694,373.427 7.5,373.5C 7.02694,372.094 6.02694,371.427 4.5,371.5C 2.5887,370.925 0.922032,369.925 -0.5,368.5C -0.5,367.167 -0.5,365.833 -0.5,364.5C 0.166667,363.833 0.833333,363.167 1.5,362.5C 2.90632,362.027 3.57298,361.027 3.5,359.5C 5.40678,354.016 8.07344,349.016 11.5,344.5C 12.9063,344.027 13.573,343.027 13.5,341.5C 22.33,324.502 31.6633,307.836 41.5,291.5C 42.9063,291.027 43.573,290.027 43.5,288.5C 43.6596,286.847 44.3263,285.514 45.5,284.5C 46.9063,284.027 47.573,283.027 47.5,281.5C 47.6596,279.847 48.3263,278.514 49.5,277.5C 50.9063,277.027 51.573,276.027 51.5,274.5C 58.1079,261.905 65.1079,249.572 72.5,237.5C 73.9063,237.027 74.573,236.027 74.5,234.5C 74.6596,232.847 75.3263,231.514 76.5,230.5C 77.9063,230.027 78.573,229.027 78.5,227.5C 79.7738,224.24 81.4405,221.24 83.5,218.5C 84.9063,218.027 85.573,217.027 85.5,215.5C 85.6596,213.847 86.3263,212.514 87.5,211.5C 88.9063,211.027 89.573,210.027 89.5,208.5C 89.6596,206.847 90.3263,205.514 91.5,204.5C 92.9063,204.027 93.573,203.027 93.5,201.5C 94.7738,198.24 96.4405,195.24 98.5,192.5C 99.9063,192.027 100.573,191.027 100.5,189.5C 101.774,186.24 103.44,183.24 105.5,180.5C 106.906,180.027 107.573,179.027 107.5,177.5C 107.66,175.847 108.326,174.514 109.5,173.5C 110.906,173.027 111.573,172.027 111.5,170.5C 112.774,167.24 114.44,164.24 116.5,161.5C 117.906,161.027 118.573,160.027 118.5,158.5C 118.328,157.508 118.662,156.842 119.5,156.5C 120.906,156.027 121.573,155.027 121.5,153.5C 122.774,150.24 124.44,147.24 126.5,144.5C 127.906,144.027 128.573,143.027 128.5,141.5C 128.328,140.508 128.662,139.842 129.5,139.5C 130.906,139.027 131.573,138.027 131.5,136.5C 131.328,135.508 131.662,134.842 132.5,134.5C 133.906,134.027 134.573,133.027 134.5,131.5C 135.079,128.669 136.412,126.336 138.5,124.5C 139.906,124.027 140.573,123.027 140.5,121.5C 141.906,121.027 142.573,120.027 142.5,118.5C 143.251,117.427 144.251,117.26 145.5,118C 152.979,121.994 160.312,126.161 167.5,130.5C 167.821,132.048 168.821,132.715 170.5,132.5C 171.833,133.167 173.167,133.833 174.5,134.5C 174.821,136.048 175.821,136.715 177.5,136.5C 185.329,140.58 192.996,144.913 200.5,149.5C 200.821,151.048 201.821,151.715 203.5,151.5C 204.833,152.167 206.167,152.833 207.5,153.5C 207.821,155.048 208.821,155.715 210.5,155.5C 211.833,156.167 213.167,156.833 214.5,157.5C 214.821,159.048 215.821,159.715 217.5,159.5C 218.833,160.167 220.167,160.833 221.5,161.5C 221.821,163.048 222.821,163.715 224.5,163.5C 225.833,164.167 227.167,164.833 228.5,165.5C 228.821,167.048 229.821,167.715 231.5,167.5C 232.833,168.167 234.167,168.833 235.5,169.5C 235.821,171.048 236.821,171.715 238.5,171.5C 239.167,171.833 239.833,172.167 240.5,172.5C 240.821,174.048 241.821,174.715 243.5,174.5C 245.062,174.733 246.395,175.4 247.5,176.5C 247.821,178.048 248.821,178.715 250.5,178.5C 251.833,179.167 253.167,179.833 254.5,180.5C 254.821,182.048 255.821,182.715 257.5,182.5C 258.833,183.167 260.167,183.833 261.5,184.5C 261.821,186.048 262.821,186.715 264.5,186.5C 265.167,186.833 265.833,187.167 266.5,187.5C 266.821,189.048 267.821,189.715 269.5,189.5C 271.062,189.733 272.395,190.4 273.5,191.5C 273.821,193.048 274.821,193.715 276.5,193.5C 281.833,196.5 287.167,199.5 292.5,202.5C 292.821,204.048 293.821,204.715 295.5,204.5C 296.833,205.167 298.167,205.833 299.5,206.5C 299.821,208.048 300.821,208.715 302.5,208.5C 303.833,209.167 305.167,209.833 306.5,210.5C 306.821,212.048 307.821,212.715 309.5,212.5C 317.995,216.913 326.328,221.58 334.5,226.5C 334.821,228.048 335.821,228.715 337.5,228.5C 338.492,228.328 339.158,228.662 339.5,229.5C 340.623,230.757 341.289,230.424 341.5,228.5C 342.146,212.175 342.479,195.841 342.5,179.5C 343.499,120.002 343.832,60.3357 343.5,0.5C 440.833,0.5 538.167,0.5 635.5,0.5C 635.168,63.3356 635.501,126.002 636.5,188.5 Z M 518.5,143.5 C 518.973,144.906 519.973,145.573 521.5,145.5C 522.262,147.262 523.596,148.262 525.5,148.5C 529.21,152.208 532.543,156.208 535.5,160.5C 536.026,162.23 537.026,163.564 538.5,164.5C 547.9,183.652 547.566,202.652 537.5,221.5C 536.094,221.973 535.427,222.973 535.5,224.5C 534.094,224.973 533.427,225.973 533.5,227.5C 530.5,229.833 527.833,232.5 525.5,235.5C 523.973,235.427 522.973,236.094 522.5,237.5C 519.46,238.68 516.794,240.347 514.5,242.5C 512.509,269.146 511.842,296.146 512.5,323.5C 497.508,322.868 482.508,322.535 467.5,322.5C 467.667,304.164 467.5,285.83 467,267.5C 466.996,258.927 466.162,250.593 464.5,242.5C 463.71,241.599 462.71,240.932 461.5,240.5C 455.953,237.221 450.953,233.221 446.5,228.5C 446.573,226.973 445.906,225.973 444.5,225.5C 444.573,223.973 443.906,222.973 442.5,222.5C 439.737,216.636 437.237,210.636 435,204.5C 431.076,172.465 443.909,150.298 473.5,138C 489.18,134.697 504.18,136.53 518.5,143.5 Z M 661.5,365.5 C 661.5,366.833 661.5,368.167 661.5,369.5C 664.167,369.5 666.833,369.5 669.5,369.5C 673.854,370.086 678.188,370.752 682.5,371.5C 682.167,372.167 681.833,372.833 681.5,373.5C 675.176,374.296 668.842,375.129 662.5,376C 659.064,377.274 656.397,379.441 654.5,382.5C 652.5,383.833 650.833,385.5 649.5,387.5C 643.111,390.239 636.444,392.073 629.5,393C 606.322,397.314 582.988,399.981 559.5,401C 550.521,398.181 542.854,393.348 536.5,386.5C 536.262,384.596 535.262,383.262 533.5,382.5C 533.047,381.542 532.381,380.708 531.5,380C 500.145,379.089 468.812,379.422 437.5,381C 424.925,384.081 416.258,391.581 411.5,403.5C 409.981,406.526 409.315,409.859 409.5,413.5C 409.503,416.025 409.837,418.359 410.5,420.5C 411.889,426.218 414.889,430.885 419.5,434.5C 419.973,435.906 420.973,436.573 422.5,436.5C 422.973,437.906 423.973,438.573 425.5,438.5C 427.428,440.474 429.761,441.974 432.5,443C 439.733,445.8 447.066,448.3 454.5,450.5C 455.823,465.73 455.823,480.897 454.5,496C 438.787,492.43 423.454,487.43 408.5,481C 402.132,478.119 396.465,474.286 391.5,469.5C 389.5,466.833 387.167,464.5 384.5,462.5C 381.469,458.476 378.469,454.476 375.5,450.5C 375.573,448.973 374.906,447.973 373.5,447.5C 357.59,410.639 364.923,379.139 395.5,353C 404.684,346.905 414.351,341.572 424.5,337C 461.171,336.588 497.838,335.921 534.5,335C 537.167,334.667 539.833,334.333 542.5,334C 547.626,331.211 552.959,328.878 558.5,327C 588.666,328.305 618.332,332.972 647.5,341C 656.169,346.834 660.836,355.001 661.5,365.5 Z M 503.5,572.5 C 496.833,573.724 490.499,575.724 484.5,578.5C 479.76,579.636 475.093,580.97 470.5,582.5C 469.391,582.443 468.391,582.11 467.5,581.5C 466.772,518.169 466.438,454.836 466.5,391.5C 481.833,391.5 497.167,391.5 512.5,391.5C 512.5,450.833 512.5,510.167 512.5,569.5C 509.215,569.928 506.215,570.928 503.5,572.5 Z M 538.5,480.5 C 539.93,481.537 541.597,482.204 543.5,482.5C 549.496,484.831 555.496,487.164 561.5,489.5C 561.973,490.906 562.973,491.573 564.5,491.5C 565.514,492.674 566.847,493.34 568.5,493.5C 568.973,494.906 569.973,495.573 571.5,495.5C 571.973,496.906 572.973,497.573 574.5,497.5C 574.833,498.5 575.5,499.167 576.5,499.5C 576.973,500.906 577.973,501.573 579.5,501.5C 596.137,518.003 602.97,538.003 600,561.5C 598.047,568.069 595.547,574.402 592.5,580.5C 591.094,580.973 590.427,581.973 590.5,583.5C 588.738,584.262 587.738,585.596 587.5,587.5C 586.5,587.833 585.833,588.5 585.5,589.5C 582.167,592.167 579.167,595.167 576.5,598.5C 572.696,601.239 568.696,603.739 564.5,606C 554.697,609.432 545.03,612.932 535.5,616.5C 530.835,617.057 526.502,618.39 522.5,620.5C 521.209,620.263 520.209,620.596 519.5,621.5C 516.848,621.41 514.515,622.076 512.5,623.5C 511.209,623.263 510.209,623.596 509.5,624.5C 505.838,624.723 502.505,625.723 499.5,627.5C 498.209,627.263 497.209,627.596 496.5,628.5C 493.848,628.41 491.515,629.076 489.5,630.5C 488.209,630.263 487.209,630.596 486.5,631.5C 483.848,631.41 481.515,632.076 479.5,633.5C 472.826,634.726 466.493,636.726 460.5,639.5C 455.835,640.057 451.502,641.39 447.5,643.5C 447.167,643.5 446.833,643.5 446.5,643.5C 444.597,643.796 442.93,644.463 441.5,645.5C 439.326,645.75 437.659,646.75 436.5,648.5C 434.167,648.833 432.833,650.167 432.5,652.5C 431.833,652.5 431.5,652.833 431.5,653.5C 430.094,653.973 429.427,654.973 429.5,656.5C 428.048,658.848 427.382,661.514 427.5,664.5C 427.507,666.369 427.84,668.036 428.5,669.5C 428.818,673.801 430.485,677.468 433.5,680.5C 434.262,682.262 435.596,683.262 437.5,683.5C 442.644,688.126 448.644,691.46 455.5,693.5C 456.499,704.146 456.832,714.813 456.5,725.5C 455.778,726.551 454.778,727.218 453.5,727.5C 442.322,723.373 431.322,718.54 420.5,713C 414.97,708.636 409.97,703.802 405.5,698.5C 405.573,696.973 404.906,695.973 403.5,695.5C 403.573,693.973 402.906,692.973 401.5,692.5C 388.051,663.662 393.718,639.162 418.5,619C 455.708,604.152 493.375,590.485 531.5,578C 538.616,575.275 545.616,572.275 552.5,569C 560.974,563.735 564.307,556.235 562.5,546.5C 562.59,543.848 561.924,541.515 560.5,539.5C 558.164,534.651 554.831,530.484 550.5,527C 542.907,522.633 534.907,519.133 526.5,516.5C 525.359,503.845 524.859,491.178 525,478.5C 525.333,477.833 525.667,477.167 526,476.5C 530.004,478.335 534.17,479.668 538.5,480.5 Z M 506.5,831.5 C 504.973,831.427 503.973,832.094 503.5,833.5C 499.434,835.601 495.101,836.935 490.5,837.5C 485.408,836.951 480.741,835.284 476.5,832.5C 475.167,830.5 473.5,828.833 471.5,827.5C 469.093,822.49 467.927,817.157 468,811.5C 466.794,758.173 466.294,704.84 466.5,651.5C 481.089,647.52 495.755,643.853 510.5,640.5C 513.289,701.174 513.122,761.841 510,822.5C 509.119,825.647 507.953,828.647 506.5,831.5 Z M 525.5,711.5 C 530.299,714.737 535.299,717.737 540.5,720.5C 541.262,722.262 542.596,723.262 544.5,723.5C 553.491,731.48 559.991,741.146 564,752.5C 565.772,763.148 565.939,773.814 564.5,784.5C 563.833,784.167 563.167,783.833 562.5,783.5C 562.59,780.848 561.924,778.515 560.5,776.5C 560.34,774.847 559.674,773.514 558.5,772.5C 558.573,770.973 557.906,769.973 556.5,769.5C 556.573,767.973 555.906,766.973 554.5,766.5C 552.167,763.5 549.5,760.833 546.5,758.5C 545.564,757.026 544.23,756.026 542.5,755.5C 541.71,754.599 540.71,753.932 539.5,753.5C 535.493,750.997 531.16,749.33 526.5,748.5C 525.866,741.4 525.199,734.4 524.5,727.5C 524.5,726.833 524.5,726.167 524.5,725.5C 524.181,720.637 524.514,715.97 525.5,711.5 Z"/></g>
<g><path style="opacity:1" fill="#7e7e7e" d="M 833.5,118.5 C 833.027,119.906 832.027,120.573 830.5,120.5C 830.973,119.094 831.973,118.427 833.5,118.5 Z"/></g>
<g><path style="opacity:1" fill="#747474" d="M 142.5,118.5 C 142.573,120.027 141.906,121.027 140.5,121.5C 140.427,119.973 141.094,118.973 142.5,118.5 Z"/></g>
<g><path style="opacity:1" fill="#787878" d="M 836.5,118.5 C 837.906,118.973 838.573,119.973 838.5,121.5C 837.094,121.027 836.427,120.027 836.5,118.5 Z"/></g>
<g><path style="opacity:1" fill="#919191" d="M 140.5,121.5 C 140.573,123.027 139.906,124.027 138.5,124.5C 138.427,122.973 139.094,121.973 140.5,121.5 Z"/></g>
<g><path style="opacity:1" fill="#939393" d="M 838.5,121.5 C 839.906,121.973 840.573,122.973 840.5,124.5C 839.094,124.027 838.427,123.027 838.5,121.5 Z"/></g>
<g><path style="opacity:1" fill="#858585" d="M 824.5,123.5 C 824.027,124.906 823.027,125.573 821.5,125.5C 821.973,124.094 822.973,123.427 824.5,123.5 Z"/></g>
<g><path style="opacity:1" fill="#7a7a7a" d="M 817.5,127.5 C 817.027,128.906 816.027,129.573 814.5,129.5C 814.973,128.094 815.973,127.427 817.5,127.5 Z"/></g>
<g><path style="opacity:1" fill="#7e7e7e" d="M 167.5,130.5 C 168.71,130.932 169.71,131.599 170.5,132.5C 168.821,132.715 167.821,132.048 167.5,130.5 Z"/></g>
<g><path style="opacity:1" fill="#797979" d="M 810.5,131.5 C 810.027,132.906 809.027,133.573 807.5,133.5C 807.973,132.094 808.973,131.427 810.5,131.5 Z"/></g>
<g><path style="opacity:1" fill="#8e8e8e" d="M 134.5,131.5 C 134.573,133.027 133.906,134.027 132.5,134.5C 132.427,132.973 133.094,131.973 134.5,131.5 Z"/></g>
<g><path style="opacity:1" fill="#919191" d="M 844.5,131.5 C 845.906,131.973 846.573,132.973 846.5,134.5C 845.094,134.027 844.427,133.027 844.5,131.5 Z"/></g>
<g><path style="opacity:1" fill="#7f7f7f" d="M 174.5,134.5 C 175.71,134.932 176.71,135.599 177.5,136.5C 175.821,136.715 174.821,136.048 174.5,134.5 Z"/></g>
<g><path style="opacity:1" fill="#747474" d="M 803.5,135.5 C 803.027,136.906 802.027,137.573 800.5,137.5C 800.973,136.094 801.973,135.427 803.5,135.5 Z"/></g>
<g><path style="opacity:1" fill="#979797" d="M 131.5,136.5 C 131.573,138.027 130.906,139.027 129.5,139.5C 129.427,137.973 130.094,136.973 131.5,136.5 Z"/></g>
<g><path style="opacity:1" fill="#9b9b9b" d="M 847.5,136.5 C 848.906,136.973 849.573,137.973 849.5,139.5C 848.094,139.027 847.427,138.027 847.5,136.5 Z"/></g>
<g><path style="opacity:1" fill="#797979" d="M 796.5,139.5 C 796.027,140.906 795.027,141.573 793.5,141.5C 793.973,140.094 794.973,139.427 796.5,139.5 Z"/></g>
<g><path style="opacity:1" fill="#a0a0a0" d="M 128.5,141.5 C 128.573,143.027 127.906,144.027 126.5,144.5C 126.427,142.973 127.094,141.973 128.5,141.5 Z"/></g>
<g><path style="opacity:1" fill="#a4a4a4" d="M 850.5,141.5 C 851.906,141.973 852.573,142.973 852.5,144.5C 851.094,144.027 850.427,143.027 850.5,141.5 Z"/></g>
<g><path style="opacity:1" fill="#9c9c9c" d="M 518.5,143.5 C 520.027,143.427 521.027,144.094 521.5,145.5C 519.973,145.573 518.973,144.906 518.5,143.5 Z"/></g>
<g><path style="opacity:1" fill="#808080" d="M 789.5,143.5 C 789.027,144.906 788.027,145.573 786.5,145.5C 786.973,144.094 787.973,143.427 789.5,143.5 Z"/></g>
<g><path style="opacity:1" fill="#7a7a7a" d="M 521.5,145.5 C 523.404,145.738 524.738,146.738 525.5,148.5C 523.596,148.262 522.262,147.262 521.5,145.5 Z"/></g>
<g><path style="opacity:1" fill="#858585" d="M 782.5,147.5 C 782.027,148.906 781.027,149.573 779.5,149.5C 779.973,148.094 780.973,147.427 782.5,147.5 Z"/></g>
<g><path style="opacity:1" fill="#767676" d="M 200.5,149.5 C 201.71,149.932 202.71,150.599 203.5,151.5C 201.821,151.715 200.821,151.048 200.5,149.5 Z"/></g>
<g><path style="opacity:1" fill="#767676" d="M 207.5,153.5 C 208.71,153.932 209.71,154.599 210.5,155.5C 208.821,155.715 207.821,155.048 207.5,153.5 Z"/></g>
<g><path style="opacity:1" fill="#8e8e8e" d="M 121.5,153.5 C 121.573,155.027 120.906,156.027 119.5,156.5C 119.427,154.973 120.094,153.973 121.5,153.5 Z"/></g>
<g><path style="opacity:1" fill="#7b7b7b" d="M 214.5,157.5 C 215.71,157.932 216.71,158.599 217.5,159.5C 215.821,159.715 214.821,159.048 214.5,157.5 Z"/></g>
<g><path style="opacity:1" fill="#9f9f9f" d="M 118.5,158.5 C 118.573,160.027 117.906,161.027 116.5,161.5C 116.427,159.973 117.094,158.973 118.5,158.5 Z"/></g>
<g><path style="opacity:1" fill="#818181" d="M 535.5,160.5 C 537.446,161.035 538.446,162.368 538.5,164.5C 537.026,163.564 536.026,162.23 535.5,160.5 Z"/></g>
<g><path style="opacity:1" fill="#a1a1a1" d="M 860.5,158.5 C 861.906,158.973 862.573,159.973 862.5,161.5C 861.094,161.027 860.427,160.027 860.5,158.5 Z"/></g>
<g><path style="opacity:1" fill="#7d7d7d" d="M 221.5,161.5 C 222.71,161.932 223.71,162.599 224.5,163.5C 222.821,163.715 221.821,163.048 221.5,161.5 Z"/></g>
<g><path style="opacity:1" fill="#787878" d="M 756.5,162.5 C 756.027,163.906 755.027,164.573 753.5,164.5C 753.973,163.094 754.973,162.427 756.5,162.5 Z"/></g>
<g><path style="opacity:1" fill="#7e7e7e" d="M 228.5,165.5 C 229.71,165.932 230.71,166.599 231.5,167.5C 229.821,167.715 228.821,167.048 228.5,165.5 Z"/></g>
<g><path style="opacity:1" fill="#7b7b7b" d="M 749.5,166.5 C 749.027,167.906 748.027,168.573 746.5,168.5C 746.973,167.094 747.973,166.427 749.5,166.5 Z"/></g>
<g><path style="opacity:1" fill="#838383" d="M 235.5,169.5 C 236.71,169.932 237.71,170.599 238.5,171.5C 236.821,171.715 235.821,171.048 235.5,169.5 Z"/></g>
<g><path style="opacity:1" fill="#818181" d="M 742.5,170.5 C 742.027,171.906 741.027,172.573 739.5,172.5C 739.973,171.094 740.973,170.427 742.5,170.5 Z"/></g>
<g><path style="opacity:1" fill="#a2a2a2" d="M 111.5,170.5 C 111.573,172.027 110.906,173.027 109.5,173.5C 109.427,171.973 110.094,170.973 111.5,170.5 Z"/></g>
<g><path style="opacity:1" fill="#757575" d="M 240.5,172.5 C 241.71,172.932 242.71,173.599 243.5,174.5C 241.821,174.715 240.821,174.048 240.5,172.5 Z"/></g>
<g><path style="opacity:1" fill="#868686" d="M 735.5,174.5 C 735.027,175.906 734.027,176.573 732.5,176.5C 732.973,175.094 733.973,174.427 735.5,174.5 Z"/></g>
<g><path style="opacity:1" fill="#7a7a7a" d="M 247.5,176.5 C 248.71,176.932 249.71,177.599 250.5,178.5C 248.821,178.715 247.821,178.048 247.5,176.5 Z"/></g>
<g><path style="opacity:1" fill="#939393" d="M 107.5,177.5 C 107.573,179.027 106.906,180.027 105.5,180.5C 105.427,178.973 106.094,177.973 107.5,177.5 Z"/></g>
<g><path style="opacity:1" fill="#979797" d="M 871.5,177.5 C 872.906,177.973 873.573,178.973 873.5,180.5C 872.094,180.027 871.427,179.027 871.5,177.5 Z"/></g>
<g><path style="opacity:1" fill="#7f7f7f" d="M 254.5,180.5 C 255.71,180.932 256.71,181.599 257.5,182.5C 255.821,182.715 254.821,182.048 254.5,180.5 Z"/></g>
<g><path style="opacity:1" fill="#767676" d="M 723.5,181.5 C 723.027,182.906 722.027,183.573 720.5,183.5C 720.973,182.094 721.973,181.427 723.5,181.5 Z"/></g>
<g><path style="opacity:1" fill="#858585" d="M 261.5,184.5 C 262.71,184.932 263.71,185.599 264.5,186.5C 262.821,186.715 261.821,186.048 261.5,184.5 Z"/></g>
<g><path style="opacity:1" fill="#838383" d="M 716.5,185.5 C 716.027,186.906 715.027,187.573 713.5,187.5C 713.973,186.094 714.973,185.427 716.5,185.5 Z"/></g>
<g><path style="opacity:1" fill="#767676" d="M 266.5,187.5 C 267.71,187.932 268.71,188.599 269.5,189.5C 267.821,189.715 266.821,189.048 266.5,187.5 Z"/></g>
<g><path style="opacity:1" fill="#979797" d="M 100.5,189.5 C 100.573,191.027 99.9063,192.027 98.5,192.5C 98.427,190.973 99.0937,189.973 100.5,189.5 Z"/></g>
<g><path style="opacity:1" fill="#9a9a9a" d="M 878.5,189.5 C 879.906,189.973 880.573,190.973 880.5,192.5C 879.094,192.027 878.427,191.027 878.5,189.5 Z"/></g>
<g><path style="opacity:1" fill="#7b7b7b" d="M 273.5,191.5 C 274.71,191.932 275.71,192.599 276.5,193.5C 274.821,193.715 273.821,193.048 273.5,191.5 Z"/></g>
<g><path style="opacity:1" fill="#7c7c7c" d="M 697.5,196.5 C 697.027,197.906 696.027,198.573 694.5,198.5C 694.973,197.094 695.973,196.427 697.5,196.5 Z"/></g>
<g><path style="opacity:1" fill="#868686" d="M 690.5,200.5 C 690.027,201.906 689.027,202.573 687.5,202.5C 687.973,201.094 688.973,200.427 690.5,200.5 Z"/></g>
<g><path style="opacity:1" fill="#a2a2a2" d="M 93.5,201.5 C 93.573,203.027 92.9063,204.027 91.5,204.5C 91.427,202.973 92.0937,201.973 93.5,201.5 Z"/></g>
<g><path style="opacity:1" fill="#787878" d="M 292.5,202.5 C 293.71,202.932 294.71,203.599 295.5,204.5C 293.821,204.715 292.821,204.048 292.5,202.5 Z"/></g>
<g><path style="opacity:1" fill="#7d7d7d" d="M 299.5,206.5 C 300.71,206.932 301.71,207.599 302.5,208.5C 300.821,208.715 299.821,208.048 299.5,206.5 Z"/></g>
<g><path style="opacity:1" fill="#777777" d="M 678.5,207.5 C 678.027,208.906 677.027,209.573 675.5,209.5C 675.973,208.094 676.973,207.427 678.5,207.5 Z"/></g>
<g><path style="opacity:1" fill="#999999" d="M 89.5,208.5 C 89.573,210.027 88.9063,211.027 87.5,211.5C 87.427,209.973 88.0937,208.973 89.5,208.5 Z"/></g>
<g><path style="opacity:1" fill="#9e9e9e" d="M 889.5,208.5 C 890.906,208.973 891.573,209.973 891.5,211.5C 890.094,211.027 889.427,210.027 889.5,208.5 Z"/></g>
<g><path style="opacity:1" fill="#7e7e7e" d="M 306.5,210.5 C 307.71,210.932 308.71,211.599 309.5,212.5C 307.821,212.715 306.821,212.048 306.5,210.5 Z"/></g>
<g><path style="opacity:1" fill="#818181" d="M 671.5,211.5 C 671.027,212.906 670.027,213.573 668.5,213.5C 668.973,212.094 669.973,211.427 671.5,211.5 Z"/></g>
<g><path style="opacity:1" fill="#838383" d="M 664.5,215.5 C 664.027,216.906 663.027,217.573 661.5,217.5C 661.973,216.094 662.973,215.427 664.5,215.5 Z"/></g>
<g><path style="opacity:1" fill="#919191" d="M 85.5,215.5 C 85.573,217.027 84.9063,218.027 83.5,218.5C 83.427,216.973 84.0937,215.973 85.5,215.5 Z"/></g>
<g><path style="opacity:1" fill="#959595" d="M 893.5,215.5 C 894.906,215.973 895.573,216.973 895.5,218.5C 894.094,218.027 893.427,217.027 893.5,215.5 Z"/></g>
<g><path style="opacity:1" fill="#a0a0a0" d="M 537.5,221.5 C 537.573,223.027 536.906,224.027 535.5,224.5C 535.427,222.973 536.094,221.973 537.5,221.5 Z"/></g>
<g><path style="opacity:1" fill="#8f8f8f" d="M 442.5,222.5 C 443.906,222.973 444.573,223.973 444.5,225.5C 443.094,225.027 442.427,224.027 442.5,222.5 Z"/></g>
<g><path style="opacity:1" fill="#949494" d="M 535.5,224.5 C 535.573,226.027 534.906,227.027 533.5,227.5C 533.427,225.973 534.094,224.973 535.5,224.5 Z"/></g>
<g><path style="opacity:1" fill="#797979" d="M 334.5,226.5 C 335.71,226.932 336.71,227.599 337.5,228.5C 335.821,228.715 334.821,228.048 334.5,226.5 Z"/></g>
<g><path style="opacity:1" fill="#797979" d="M 444.5,225.5 C 445.906,225.973 446.573,226.973 446.5,228.5C 445.094,228.027 444.427,227.027 444.5,225.5 Z"/></g>
<g><path style="opacity:1" fill="#787878" d="M 643.5,227.5 C 643.027,228.906 642.027,229.573 640.5,229.5C 640.973,228.094 641.973,227.427 643.5,227.5 Z"/></g>
<g><path style="opacity:1" fill="#a2a2a2" d="M 78.5,227.5 C 78.573,229.027 77.9063,230.027 76.5,230.5C 76.427,228.973 77.0937,227.973 78.5,227.5 Z"/></g>
<g><path style="opacity:1" fill="#d2d2d2" d="M 341.5,228.5 C 341.289,230.424 340.623,230.757 339.5,229.5C 340.167,229.167 340.833,228.833 341.5,228.5 Z"/></g>
<g><path style="opacity:1" fill="#d2d2d2" d="M 637.5,227.5 C 638.167,228.167 638.833,228.833 639.5,229.5C 639.44,230.043 639.107,230.376 638.5,230.5C 637.614,229.675 637.281,228.675 637.5,227.5 Z"/></g>
<g><path style="opacity:1" fill="#a4a4a4" d="M 900.5,227.5 C 901.906,227.973 902.573,228.973 902.5,230.5C 901.094,230.027 900.427,229.027 900.5,227.5 Z"/></g>
<g><path style="opacity:1" fill="#999999" d="M 74.5,234.5 C 74.573,236.027 73.9063,237.027 72.5,237.5C 72.427,235.973 73.0937,234.973 74.5,234.5 Z"/></g>
<g><path style="opacity:1" fill="#8f8f8f" d="M 525.5,235.5 C 525.027,236.906 524.027,237.573 522.5,237.5C 522.973,236.094 523.973,235.427 525.5,235.5 Z"/></g>
<g><path style="opacity:1" fill="#9c9c9c" d="M 904.5,234.5 C 905.906,234.973 906.573,235.973 906.5,237.5C 905.094,237.027 904.427,236.027 904.5,234.5 Z"/></g>
<g><path style="opacity:1" fill="#777777" d="M 461.5,240.5 C 462.71,240.932 463.71,241.599 464.5,242.5C 462.821,242.715 461.821,242.048 461.5,240.5 Z"/></g>
<g><path style="opacity:1" fill="#969696" d="M 908.5,241.5 C 909.906,241.973 910.573,242.973 910.5,244.5C 909.094,244.027 908.427,243.027 908.5,241.5 Z"/></g>
<g><path style="opacity:1" fill="#a3a3a3" d="M 51.5,274.5 C 51.573,276.027 50.9063,277.027 49.5,277.5C 49.427,275.973 50.0937,274.973 51.5,274.5 Z"/></g>
<g><path style="opacity:1" fill="#a5a5a5" d="M 927.5,274.5 C 928.906,274.973 929.573,275.973 929.5,277.5C 928.094,277.027 927.427,276.027 927.5,274.5 Z"/></g>
<g><path style="opacity:1" fill="#a0a0a0" d="M 47.5,281.5 C 47.573,283.027 46.9063,284.027 45.5,284.5C 45.427,282.973 46.0937,281.973 47.5,281.5 Z"/></g>
<g><path style="opacity:1" fill="#252525" d="M 514.5,242.5 C 513.842,269.598 513.175,296.598 512.5,323.5C 511.842,296.146 512.509,269.146 514.5,242.5 Z"/></g>
<g><path style="opacity:1" fill="#a4a4a4" d="M 931.5,281.5 C 932.906,281.973 933.573,282.973 933.5,284.5C 932.094,284.027 931.427,283.027 931.5,281.5 Z"/></g>
<g><path style="opacity:1" fill="#a1a1a1" d="M 43.5,288.5 C 43.573,290.027 42.9063,291.027 41.5,291.5C 41.427,289.973 42.0937,288.973 43.5,288.5 Z"/></g>
<g><path style="opacity:1" fill="#a4a4a4" d="M 935.5,288.5 C 936.906,288.973 937.573,289.973 937.5,291.5C 936.094,291.027 935.427,290.027 935.5,288.5 Z"/></g>
<g><path style="opacity:1" fill="#9b9b9b" d="M 956.5,325.5 C 957.906,325.973 958.573,326.973 958.5,328.5C 957.094,328.027 956.427,327.027 956.5,325.5 Z"/></g>
<g><path style="opacity:1" fill="#9c9c9c" d="M 13.5,341.5 C 13.573,343.027 12.9063,344.027 11.5,344.5C 11.427,342.973 12.0937,341.973 13.5,341.5 Z"/></g>
<g><path style="opacity:1" fill="#191919" d="M 567.5,363.5 C 567.027,362.094 566.027,361.427 564.5,361.5C 560.313,355.471 560.646,349.637 565.5,344C 576.619,340.058 583.619,343.724 586.5,355C 585.043,362.065 580.71,365.898 573.5,366.5C 570.898,366.533 568.898,365.533 567.5,363.5 Z"/></g>
<g><path style="opacity:1" fill="#a0a0a0" d="M 965.5,341.5 C 966.906,341.973 967.573,342.973 967.5,344.5C 966.094,344.027 965.427,343.027 965.5,341.5 Z"/></g>
<g><path style="opacity:1" fill="#9e9e9e" d="M 3.5,359.5 C 3.57298,361.027 2.90632,362.027 1.5,362.5C 1.42702,360.973 2.09368,359.973 3.5,359.5 Z"/></g>
<g><path style="opacity:1" fill="#989898" d="M 564.5,361.5 C 566.027,361.427 567.027,362.094 567.5,363.5C 565.973,363.573 564.973,362.906 564.5,361.5 Z"/></g>
<g><path style="opacity:1" fill="#a2a2a2" d="M 975.5,359.5 C 976.906,359.973 977.573,360.973 977.5,362.5C 976.094,362.027 975.427,361.027 975.5,359.5 Z"/></g>
<g><path style="opacity:1" fill="#525252" d="M 661.5,365.5 C 662.404,366.209 662.737,367.209 662.5,368.5C 665.059,368.198 667.393,368.532 669.5,369.5C 666.833,369.5 664.167,369.5 661.5,369.5C 661.5,368.167 661.5,366.833 661.5,365.5 Z"/></g>
<g><path style="opacity:1" fill="#8b8b8b" d="M 4.5,371.5 C 6.02694,371.427 7.02694,372.094 7.5,373.5C 5.97306,373.573 4.97306,372.906 4.5,371.5 Z"/></g>
<g><path style="opacity:1" fill="#cdcdcd" d="M 682.5,371.5 C 683.757,372.623 683.424,373.289 681.5,373.5C 681.833,372.833 682.167,372.167 682.5,371.5 Z"/></g>
<g><path style="opacity:1" fill="#969696" d="M 7.5,373.5 C 9.02694,373.427 10.0269,374.094 10.5,375.5C 8.97306,375.573 7.97306,374.906 7.5,373.5 Z"/></g>
<g><path style="opacity:1" fill="#a2a2a2" d="M 10.5,375.5 C 12.0269,375.427 13.0269,376.094 13.5,377.5C 11.9731,377.573 10.9731,376.906 10.5,375.5 Z"/></g>
<g><path style="opacity:1" fill="#8b8b8b" d="M 15.5,378.5 C 17.0269,378.427 18.0269,379.094 18.5,380.5C 16.9731,380.573 15.9731,379.906 15.5,378.5 Z"/></g>
<g><path style="opacity:1" fill="#949494" d="M 533.5,382.5 C 535.262,383.262 536.262,384.596 536.5,386.5C 534.738,385.738 533.738,384.404 533.5,382.5 Z"/></g>
<g><path style="opacity:1" fill="#9b9b9b" d="M 23.5,383.5 C 25.0269,383.427 26.0269,384.094 26.5,385.5C 24.9731,385.573 23.9731,384.906 23.5,383.5 Z"/></g>
<g><path style="opacity:1" fill="#585858" d="M 654.5,382.5 C 653.833,385.167 652.167,386.833 649.5,387.5C 650.833,385.5 652.5,383.833 654.5,382.5 Z"/></g>
<g><path style="opacity:1" fill="#9c9c9c" d="M 28.5,386.5 C 30.0269,386.427 31.0269,387.094 31.5,388.5C 29.9731,388.573 28.9731,387.906 28.5,386.5 Z"/></g>
<g><path style="opacity:1" fill="#9f9f9f" d="M 33.5,389.5 C 35.0269,389.427 36.0269,390.094 36.5,391.5C 34.9731,391.573 33.9731,390.906 33.5,389.5 Z"/></g>
<g><path style="opacity:1" fill="#a1a1a1" d="M 38.5,392.5 C 40.0269,392.427 41.0269,393.094 41.5,394.5C 39.9731,394.573 38.9731,393.906 38.5,392.5 Z"/></g>
<g><path style="opacity:1" fill="#a3a3a3" d="M 43.5,395.5 C 45.0269,395.427 46.0269,396.094 46.5,397.5C 44.9731,397.573 43.9731,396.906 43.5,395.5 Z"/></g>
<g><path style="opacity:1" fill="#9c9c9c" d="M 60.5,405.5 C 62.0269,405.427 63.0269,406.094 63.5,407.5C 61.9731,407.573 60.9731,406.906 60.5,405.5 Z"/></g>
<g><path style="opacity:1" fill="#949494" d="M 72.5,412.5 C 74.0269,412.427 75.0269,413.094 75.5,414.5C 73.9731,414.573 72.9731,413.906 72.5,412.5 Z"/></g>
<g><path style="opacity:1" fill="#616161" d="M 411.5,403.5 C 410.708,409.13 410.375,414.797 410.5,420.5C 409.837,418.359 409.503,416.025 409.5,413.5C 409.315,409.859 409.981,406.526 411.5,403.5 Z"/></g>
<g><path style="opacity:1" fill="#a3a3a3" d="M 77.5,415.5 C 79.0269,415.427 80.0269,416.094 80.5,417.5C 78.9731,417.573 77.9731,416.906 77.5,415.5 Z"/></g>
<g><path style="opacity:1" fill="#a0a0a0" d="M 89.5,422.5 C 91.0269,422.427 92.0269,423.094 92.5,424.5C 90.9731,424.573 89.9731,423.906 89.5,422.5 Z"/></g>
<g><path style="opacity:1" fill="#999999" d="M 419.5,434.5 C 421.027,434.427 422.027,435.094 422.5,436.5C 420.973,436.573 419.973,435.906 419.5,434.5 Z"/></g>
<g><path style="opacity:1" fill="#7e7e7e" d="M 422.5,436.5 C 424.027,436.427 425.027,437.094 425.5,438.5C 423.973,438.573 422.973,437.906 422.5,436.5 Z"/></g>
<g><path style="opacity:1" fill="#9f9f9f" d="M 120.5,440.5 C 122.027,440.427 123.027,441.094 123.5,442.5C 121.973,442.573 120.973,441.906 120.5,440.5 Z"/></g>
<g><path style="opacity:1" fill="#979797" d="M 373.5,447.5 C 374.906,447.973 375.573,448.973 375.5,450.5C 374.094,450.027 373.427,449.027 373.5,447.5 Z"/></g>
<g><path style="opacity:1" fill="#979797" d="M 139.5,451.5 C 141.027,451.427 142.027,452.094 142.5,453.5C 140.973,453.573 139.973,452.906 139.5,451.5 Z"/></g>
<g><path style="opacity:1" fill="#909090" d="M 151.5,458.5 C 153.027,458.427 154.027,459.094 154.5,460.5C 152.973,460.573 151.973,459.906 151.5,458.5 Z"/></g>
<g><path style="opacity:1" fill="#a0a0a0" d="M 156.5,461.5 C 158.027,461.427 159.027,462.094 159.5,463.5C 157.973,463.573 156.973,462.906 156.5,461.5 Z"/></g>
<g><path style="opacity:1" fill="#9d9d9d" d="M 384.5,462.5 C 387.167,464.5 389.5,466.833 391.5,469.5C 388.167,468.167 385.833,465.833 384.5,462.5 Z"/></g>
<g><path style="opacity:1" fill="#979797" d="M 168.5,468.5 C 170.027,468.427 171.027,469.094 171.5,470.5C 169.973,470.573 168.973,469.906 168.5,468.5 Z"/></g>
<g><path style="opacity:1" fill="#9f9f9f" d="M 173.5,471.5 C 175.027,471.427 176.027,472.094 176.5,473.5C 174.973,473.573 173.973,472.906 173.5,471.5 Z"/></g>
<g><path style="opacity:1" fill="#a0a0a0" d="M 178.5,474.5 C 180.027,474.427 181.027,475.094 181.5,476.5C 179.973,476.573 178.973,475.906 178.5,474.5 Z"/></g>
<g><path style="opacity:1" fill="#787878" d="M 538.5,480.5 C 540.698,480.12 542.365,480.787 543.5,482.5C 541.597,482.204 539.93,481.537 538.5,480.5 Z"/></g>
<g><path style="opacity:1" fill="#979797" d="M 194.5,484.5 C 197.015,485.86 196.682,486.86 193.5,487.5C 194.11,486.609 194.443,485.609 194.5,484.5 Z"/></g>
<g><path style="opacity:1" fill="#cdcdcd" d="M 784.5,484.5 C 784.5,485.167 784.5,485.833 784.5,486.5C 781.833,485.833 781.833,485.167 784.5,484.5 Z"/></g>
<g><path style="opacity:1" fill="#868686" d="M 786.5,487.5 C 788.23,488.026 789.564,489.026 790.5,490.5C 788.368,490.446 787.035,489.446 786.5,487.5 Z"/></g>
<g><path style="opacity:1" fill="#a2a2a2" d="M 561.5,489.5 C 563.027,489.427 564.027,490.094 564.5,491.5C 562.973,491.573 561.973,490.906 561.5,489.5 Z"/></g>
<g><path style="opacity:1" fill="#888888" d="M 186.5,491.5 C 186.027,492.906 185.027,493.573 183.5,493.5C 183.973,492.094 184.973,491.427 186.5,491.5 Z"/></g>
<g><path style="opacity:1" fill="#828282" d="M 568.5,493.5 C 570.027,493.427 571.027,494.094 571.5,495.5C 569.973,495.573 568.973,494.906 568.5,493.5 Z"/></g>
<g><path style="opacity:1" fill="#848484" d="M 796.5,493.5 C 797.71,493.932 798.71,494.599 799.5,495.5C 797.821,495.715 796.821,495.048 796.5,493.5 Z"/></g>
<g><path style="opacity:1" fill="#818181" d="M 181.5,494.5 C 181.027,495.906 180.027,496.573 178.5,496.5C 178.973,495.094 179.973,494.427 181.5,494.5 Z"/></g>
<g><path style="opacity:1" fill="#7a7a7a" d="M 571.5,495.5 C 573.027,495.427 574.027,496.094 574.5,497.5C 572.973,497.573 571.973,496.906 571.5,495.5 Z"/></g>
<g><path style="opacity:1" fill="#7d7d7d" d="M 801.5,496.5 C 802.71,496.932 803.71,497.599 804.5,498.5C 802.821,498.715 801.821,498.048 801.5,496.5 Z"/></g>
<g><path style="opacity:1" fill="#818181" d="M 176.5,497.5 C 176.027,498.906 175.027,499.573 173.5,499.5C 173.973,498.094 174.973,497.427 176.5,497.5 Z"/></g>
<g><path style="opacity:1" fill="#929292" d="M 576.5,499.5 C 578.027,499.427 579.027,500.094 579.5,501.5C 577.973,501.573 576.973,500.906 576.5,499.5 Z"/></g>
<g><path style="opacity:1" fill="#797979" d="M 806.5,499.5 C 807.71,499.932 808.71,500.599 809.5,501.5C 807.821,501.715 806.821,501.048 806.5,499.5 Z"/></g>
<g><path style="opacity:1" fill="#767676" d="M 171.5,500.5 C 171.027,501.906 170.027,502.573 168.5,502.5C 168.973,501.094 169.973,500.427 171.5,500.5 Z"/></g>
<g><path style="opacity:1" fill="#757575" d="M 811.5,502.5 C 812.71,502.932 813.71,503.599 814.5,504.5C 812.821,504.715 811.821,504.048 811.5,502.5 Z"/></g>
<g><path style="opacity:1" fill="#828282" d="M 159.5,507.5 C 159.027,508.906 158.027,509.573 156.5,509.5C 156.973,508.094 157.973,507.427 159.5,507.5 Z"/></g>
<g><path style="opacity:1" fill="#787878" d="M 823.5,509.5 C 824.71,509.932 825.71,510.599 826.5,511.5C 824.821,511.715 823.821,511.048 823.5,509.5 Z"/></g>
<g><path style="opacity:1" fill="#838383" d="M 830.5,513.5 C 831.71,513.932 832.71,514.599 833.5,515.5C 831.821,515.715 830.821,515.048 830.5,513.5 Z"/></g>
<g><path style="opacity:1" fill="#848484" d="M 147.5,514.5 C 147.027,515.906 146.027,516.573 144.5,516.5C 144.973,515.094 145.973,514.427 147.5,514.5 Z"/></g>
<g><path style="opacity:1" fill="#7a7a7a" d="M 835.5,516.5 C 836.71,516.932 837.71,517.599 838.5,518.5C 836.821,518.715 835.821,518.048 835.5,516.5 Z"/></g>
<g><path style="opacity:1" fill="#757575" d="M 142.5,517.5 C 142.027,518.906 141.027,519.573 139.5,519.5C 139.973,518.094 140.973,517.427 142.5,517.5 Z"/></g>
<g><path style="opacity:1" fill="#848484" d="M 135.5,521.5 C 135.027,522.906 134.027,523.573 132.5,523.5C 132.973,522.094 133.973,521.427 135.5,521.5 Z"/></g>
<g><path style="opacity:1" fill="#7b7b7b" d="M 847.5,523.5 C 848.71,523.932 849.71,524.599 850.5,525.5C 848.821,525.715 847.821,525.048 847.5,523.5 Z"/></g>
<g><path style="opacity:1" fill="#848484" d="M 854.5,527.5 C 855.71,527.932 856.71,528.599 857.5,529.5C 855.821,529.715 854.821,529.048 854.5,527.5 Z"/></g>
<g><path style="opacity:1" fill="#7d7d7d" d="M 123.5,528.5 C 123.027,529.906 122.027,530.573 120.5,530.5C 120.973,529.094 121.973,528.427 123.5,528.5 Z"/></g>
<g><path style="opacity:1" fill="#757575" d="M 859.5,530.5 C 860.71,530.932 861.71,531.599 862.5,532.5C 860.821,532.715 859.821,532.048 859.5,530.5 Z"/></g>
<g><path style="opacity:1" fill="#7d7d7d" d="M 866.5,534.5 C 867.71,534.932 868.71,535.599 869.5,536.5C 867.821,536.715 866.821,536.048 866.5,534.5 Z"/></g>
<g><path style="opacity:1" fill="#7a7a7a" d="M 111.5,535.5 C 111.027,536.906 110.027,537.573 108.5,537.5C 108.973,536.094 109.973,535.427 111.5,535.5 Z"/></g>
<g><path style="opacity:1" fill="#888888" d="M 873.5,538.5 C 874.71,538.932 875.71,539.599 876.5,540.5C 874.821,540.715 873.821,540.048 873.5,538.5 Z"/></g>
<g><path style="opacity:1" fill="#838383" d="M 104.5,539.5 C 104.027,540.906 103.027,541.573 101.5,541.5C 101.973,540.094 102.973,539.427 104.5,539.5 Z"/></g>
<g><path style="opacity:1" fill="#6c6c6c" d="M 560.5,539.5 C 561.924,541.515 562.59,543.848 562.5,546.5C 561.076,544.485 560.41,542.152 560.5,539.5 Z"/></g>
<g><path style="opacity:1" fill="#7a7a7a" d="M 878.5,541.5 C 879.71,541.932 880.71,542.599 881.5,543.5C 879.821,543.715 878.821,543.048 878.5,541.5 Z"/></g>
<g><path style="opacity:1" fill="#838383" d="M 92.5,546.5 C 92.0269,547.906 91.0269,548.573 89.5,548.5C 89.9731,547.094 90.9731,546.427 92.5,546.5 Z"/></g>
<g><path style="opacity:1" fill="#7a7a7a" d="M 890.5,548.5 C 891.71,548.932 892.71,549.599 893.5,550.5C 891.821,550.715 890.821,550.048 890.5,548.5 Z"/></g>
<g><path style="opacity:1" fill="#838383" d="M 80.5,553.5 C 80.0269,554.906 79.0269,555.573 77.5,555.5C 77.9731,554.094 78.9731,553.427 80.5,553.5 Z"/></g>
<g><path style="opacity:1" fill="#7d7d7d" d="M 902.5,555.5 C 903.71,555.932 904.71,556.599 905.5,557.5C 903.821,557.715 902.821,557.048 902.5,555.5 Z"/></g>
<g><path style="opacity:1" fill="#767676" d="M 907.5,558.5 C 908.71,558.932 909.71,559.599 910.5,560.5C 908.821,560.715 907.821,560.048 907.5,558.5 Z"/></g>
<g><path style="opacity:1" fill="#808080" d="M 68.5,560.5 C 68.0269,561.906 67.0269,562.573 65.5,562.5C 65.9731,561.094 66.9731,560.427 68.5,560.5 Z"/></g>
<g><path style="opacity:1" fill="#7a7a7a" d="M 919.5,565.5 C 920.71,565.932 921.71,566.599 922.5,567.5C 920.821,567.715 919.821,567.048 919.5,565.5 Z"/></g>
<g><path style="opacity:1" fill="#818181" d="M 56.5,567.5 C 56.0269,568.906 55.0269,569.573 53.5,569.5C 53.9731,568.094 54.9731,567.427 56.5,567.5 Z"/></g>
<g><path style="opacity:1" fill="#7f7f7f" d="M 51.5,570.5 C 51.0269,571.906 50.0269,572.573 48.5,572.5C 48.9731,571.094 49.9731,570.427 51.5,570.5 Z"/></g>
<g><path style="opacity:1" fill="#7f7f7f" d="M 46.5,573.5 C 46.0269,574.906 45.0269,575.573 43.5,575.5C 43.9731,574.094 44.9731,573.427 46.5,573.5 Z"/></g>
<g><path style="opacity:1" fill="#5d5d5d" d="M 503.5,572.5 C 497.501,575.276 491.167,577.276 484.5,578.5C 490.499,575.724 496.833,573.724 503.5,572.5 Z"/></g>
<g><path style="opacity:1" fill="#7a7a7a" d="M 41.5,576.5 C 41.0269,577.906 40.0269,578.573 38.5,578.5C 38.9731,577.094 39.9731,576.427 41.5,576.5 Z"/></g>
<g><path style="opacity:1" fill="#808080" d="M 36.5,579.5 C 36.0269,580.906 35.0269,581.573 33.5,581.5C 33.9731,580.094 34.9731,579.427 36.5,579.5 Z"/></g>
<g><path style="opacity:1" fill="#d9d9d9" d="M 467.5,581.5 C 468.391,582.11 469.391,582.443 470.5,582.5C 469.053,583.885 468.053,583.552 467.5,581.5 Z"/></g>
<g><path style="opacity:1" fill="#858585" d="M 592.5,580.5 C 592.573,582.027 591.906,583.027 590.5,583.5C 590.427,581.973 591.094,580.973 592.5,580.5 Z"/></g>
<g><path style="opacity:1" fill="#767676" d="M 31.5,582.5 C 31.0269,583.906 30.0269,584.573 28.5,584.5C 28.9731,583.094 29.9731,582.427 31.5,582.5 Z"/></g>
<g><path style="opacity:1" fill="#7c7c7c" d="M 590.5,583.5 C 590.262,585.404 589.262,586.738 587.5,587.5C 587.738,585.596 588.738,584.262 590.5,583.5 Z"/></g>
<g><path style="opacity:1" fill="#757575" d="M 26.5,585.5 C 26.0269,586.906 25.0269,587.573 23.5,587.5C 23.9731,586.094 24.9731,585.427 26.5,585.5 Z"/></g>
<g><path style="opacity:1" fill="#8a8a8a" d="M 21.5,588.5 C 21.0269,589.906 20.0269,590.573 18.5,590.5C 18.9731,589.094 19.9731,588.427 21.5,588.5 Z"/></g>
<g><path style="opacity:1" fill="#747474" d="M 959.5,589.5 C 960.71,589.932 961.71,590.599 962.5,591.5C 960.821,591.715 959.821,591.048 959.5,589.5 Z"/></g>
<g><path style="opacity:1" fill="#868686" d="M 13.5,593.5 C 13.0269,594.906 12.0269,595.573 10.5,595.5C 10.9731,594.094 11.9731,593.427 13.5,593.5 Z"/></g>
<g><path style="opacity:1" fill="#919191" d="M 585.5,589.5 C 583.5,593.5 580.5,596.5 576.5,598.5C 579.167,595.167 582.167,592.167 585.5,589.5 Z"/></g>
<g><path style="opacity:1" fill="#7b7b7b" d="M 967.5,594.5 C 968.71,594.932 969.71,595.599 970.5,596.5C 968.821,596.715 967.821,596.048 967.5,594.5 Z"/></g>
<g><path style="opacity:1" fill="#797979" d="M 10.5,595.5 C 10.0269,596.906 9.02694,597.573 7.5,597.5C 7.97306,596.094 8.97306,595.427 10.5,595.5 Z"/></g>
<g><path style="opacity:1" fill="#7c7c7c" d="M 973.5,598.5 C 975.23,599.026 976.564,600.026 977.5,601.5C 975.368,601.446 974.035,600.446 973.5,598.5 Z"/></g>
<g><path style="opacity:1" fill="#858585" d="M 4.5,599.5 C 4.02694,600.906 3.02694,601.573 1.5,601.5C 1.97306,600.094 2.97306,599.427 4.5,599.5 Z"/></g>
<g><path style="opacity:1" fill="#585858" d="M 535.5,616.5 C 531.498,618.61 527.165,619.943 522.5,620.5C 526.502,618.39 530.835,617.057 535.5,616.5 Z"/></g>
<g><path style="opacity:1" fill="#606060" d="M 519.5,621.5 C 517.485,622.924 515.152,623.59 512.5,623.5C 514.515,622.076 516.848,621.41 519.5,621.5 Z"/></g>
<g><path style="opacity:1" fill="#7a7a7a" d="M 9.5,623.5 C 11.0481,623.821 11.7148,624.821 11.5,626.5C 10.5987,625.71 9.93205,624.71 9.5,623.5 Z"/></g>
<g><path style="opacity:1" fill="#5e5e5e" d="M 509.5,624.5 C 506.495,626.277 503.162,627.277 499.5,627.5C 502.505,625.723 505.838,624.723 509.5,624.5 Z"/></g>
<g><path style="opacity:1" fill="#555555" d="M 496.5,628.5 C 494.485,629.924 492.152,630.59 489.5,630.5C 491.515,629.076 493.848,628.41 496.5,628.5 Z"/></g>
<g><path style="opacity:1" fill="#565656" d="M 486.5,631.5 C 484.485,632.924 482.152,633.59 479.5,633.5C 481.515,632.076 483.848,631.41 486.5,631.5 Z"/></g>
<g><path style="opacity:1" fill="#777777" d="M 18.5,639.5 C 20.0481,639.821 20.7148,640.821 20.5,642.5C 19.5987,641.71 18.9321,640.71 18.5,639.5 Z"/></g>
<g><path style="opacity:1" fill="#5e5e5e" d="M 460.5,639.5 C 456.498,641.61 452.165,642.943 447.5,643.5C 451.502,641.39 455.835,640.057 460.5,639.5 Z"/></g>
<g><path style="opacity:1" fill="#747474" d="M 446.5,643.5 C 445.365,645.213 443.698,645.88 441.5,645.5C 442.93,644.463 444.597,643.796 446.5,643.5 Z"/></g>
<g><path style="opacity:1" fill="#868686" d="M 436.5,648.5 C 435.5,650.167 434.167,651.5 432.5,652.5C 432.833,650.167 434.167,648.833 436.5,648.5 Z"/></g>
<g><path style="opacity:1" fill="#9b9b9b" d="M 431.5,653.5 C 431.573,655.027 430.906,656.027 429.5,656.5C 429.427,654.973 430.094,653.973 431.5,653.5 Z"/></g>
<g><path style="opacity:1" fill="#929292" d="M 429.5,656.5 C 428.8,660.798 428.467,665.131 428.5,669.5C 427.84,668.036 427.507,666.369 427.5,664.5C 427.382,661.514 428.048,658.848 429.5,656.5 Z"/></g>
<g><path style="opacity:1" fill="#7d7d7d" d="M 35.5,669.5 C 37.0481,669.821 37.7148,670.821 37.5,672.5C 36.5987,671.71 35.9321,670.71 35.5,669.5 Z"/></g>
<g><path style="opacity:1" fill="#7a7a7a" d="M 39.5,676.5 C 41.0481,676.821 41.7148,677.821 41.5,679.5C 40.5987,678.71 39.9321,677.71 39.5,676.5 Z"/></g>
<g><path style="opacity:1" fill="#a5a5a5" d="M 433.5,680.5 C 435.404,680.738 436.738,681.738 437.5,683.5C 435.596,683.262 434.262,682.262 433.5,680.5 Z"/></g>
<g><path style="opacity:1" fill="#787878" d="M 43.5,683.5 C 45.0481,683.821 45.7148,684.821 45.5,686.5C 44.5987,685.71 43.9321,684.71 43.5,683.5 Z"/></g>
<g><path style="opacity:1" fill="#797979" d="M 47.5,690.5 C 49.0481,690.821 49.7148,691.821 49.5,693.5C 48.5987,692.71 47.9321,691.71 47.5,690.5 Z"/></g>
<g><path style="opacity:1" fill="#8a8a8a" d="M 401.5,692.5 C 402.906,692.973 403.573,693.973 403.5,695.5C 402.094,695.027 401.427,694.027 401.5,692.5 Z"/></g>
<g><path style="opacity:1" fill="#7b7b7b" d="M 51.5,697.5 C 53.0481,697.821 53.7148,698.821 53.5,700.5C 52.5987,699.71 51.9321,698.71 51.5,697.5 Z"/></g>
<g><path style="opacity:1" fill="#909090" d="M 403.5,695.5 C 404.906,695.973 405.573,696.973 405.5,698.5C 404.094,698.027 403.427,697.027 403.5,695.5 Z"/></g>
<g><path style="opacity:1" fill="#7d7d7d" d="M 55.5,704.5 C 57.0481,704.821 57.7148,705.821 57.5,707.5C 56.5987,706.71 55.9321,705.71 55.5,704.5 Z"/></g>
<g><path style="opacity:1" fill="#7e7e7e" d="M 59.5,711.5 C 61.0481,711.821 61.7148,712.821 61.5,714.5C 60.5987,713.71 59.9321,712.71 59.5,711.5 Z"/></g>
<g><path style="opacity:1" fill="#7b7b7b" d="M 540.5,720.5 C 542.404,720.738 543.738,721.738 544.5,723.5C 542.596,723.262 541.262,722.262 540.5,720.5 Z"/></g>
<g><path style="opacity:1" fill="#3a3a3a" d="M 525.5,711.5 C 524.514,715.97 524.181,720.637 524.5,725.5C 523.186,720.652 523.186,715.652 524.5,710.5C 525.107,710.624 525.44,710.957 525.5,711.5 Z"/></g>
<g><path style="opacity:1" fill="#949494" d="M 456.5,725.5 C 456.5,726.5 456.5,727.5 456.5,728.5C 455.209,728.737 454.209,728.404 453.5,727.5C 454.778,727.218 455.778,726.551 456.5,725.5 Z"/></g>
<g><path style="opacity:1" fill="#757575" d="M 74.5,737.5 C 76.0481,737.821 76.7148,738.821 76.5,740.5C 75.5987,739.71 74.9321,738.71 74.5,737.5 Z"/></g>
<g><path style="opacity:1" fill="#d2d2d2" d="M 339.5,741.5 C 340.623,740.243 341.289,740.576 341.5,742.5C 340.833,742.167 340.167,741.833 339.5,741.5 Z"/></g>
<g><path style="opacity:1" fill="#a1a1a1" d="M 524.5,727.5 C 525.199,734.4 525.866,741.4 526.5,748.5C 524.539,741.913 523.872,734.913 524.5,727.5 Z"/></g>
<g><path style="opacity:1" fill="#e5e5e5" d="M 639.5,741.5 C 638.833,742.167 638.167,742.833 637.5,743.5C 637.281,742.325 637.614,741.325 638.5,740.5C 639.107,740.624 639.44,740.957 639.5,741.5 Z"/></g>
<g><path style="opacity:1" fill="#797979" d="M 78.5,744.5 C 80.0481,744.821 80.7148,745.821 80.5,747.5C 79.5987,746.71 78.9321,745.71 78.5,744.5 Z"/></g>
<g><path style="opacity:1" fill="#a4a4a4" d="M 654.5,749.5 C 656.027,749.427 657.027,750.094 657.5,751.5C 655.973,751.573 654.973,750.906 654.5,749.5 Z"/></g>
<g><path style="opacity:1" fill="#7d7d7d" d="M 82.5,751.5 C 84.0481,751.821 84.7148,752.821 84.5,754.5C 83.5987,753.71 82.9321,752.71 82.5,751.5 Z"/></g>
<g><path style="opacity:1" fill="#757575" d="M 539.5,753.5 C 540.71,753.932 541.71,754.599 542.5,755.5C 540.821,755.715 539.821,755.048 539.5,753.5 Z"/></g>
<g><path style="opacity:1" fill="#7f7f7f" d="M 542.5,755.5 C 544.23,756.026 545.564,757.026 546.5,758.5C 544.368,758.446 543.035,757.446 542.5,755.5 Z"/></g>
<g><path style="opacity:1" fill="#a2a2a2" d="M 668.5,757.5 C 670.027,757.427 671.027,758.094 671.5,759.5C 669.973,759.573 668.973,758.906 668.5,757.5 Z"/></g>
<g><path style="opacity:1" fill="#9a9a9a" d="M 675.5,761.5 C 677.027,761.427 678.027,762.094 678.5,763.5C 676.973,763.573 675.973,762.906 675.5,761.5 Z"/></g>
<g><path style="opacity:1" fill="#939393" d="M 682.5,765.5 C 684.027,765.427 685.027,766.094 685.5,767.5C 683.973,767.573 682.973,766.906 682.5,765.5 Z"/></g>
<g><path style="opacity:1" fill="#9b9b9b" d="M 554.5,766.5 C 555.906,766.973 556.573,767.973 556.5,769.5C 555.094,769.027 554.427,768.027 554.5,766.5 Z"/></g>
<g><path style="opacity:1" fill="#787878" d="M 93.5,770.5 C 95.0481,770.821 95.7148,771.821 95.5,773.5C 94.5987,772.71 93.9321,771.71 93.5,770.5 Z"/></g>
<g><path style="opacity:1" fill="#9c9c9c" d="M 556.5,769.5 C 557.906,769.973 558.573,770.973 558.5,772.5C 557.094,772.027 556.427,771.027 556.5,769.5 Z"/></g>
<g><path style="opacity:1" fill="#7d7d7d" d="M 97.5,777.5 C 99.0481,777.821 99.7148,778.821 99.5,780.5C 98.5987,779.71 97.9321,778.71 97.5,777.5 Z"/></g>
<g><path style="opacity:1" fill="#a0a0a0" d="M 701.5,776.5 C 703.027,776.427 704.027,777.094 704.5,778.5C 702.973,778.573 701.973,777.906 701.5,776.5 Z"/></g>
<g><path style="opacity:1" fill="#7c7c7c" d="M 560.5,776.5 C 561.924,778.515 562.59,780.848 562.5,783.5C 561.076,781.485 560.41,779.152 560.5,776.5 Z"/></g>
<g><path style="opacity:1" fill="#929292" d="M 715.5,784.5 C 717.027,784.427 718.027,785.094 718.5,786.5C 716.973,786.573 715.973,785.906 715.5,784.5 Z"/></g>
<g><path style="opacity:1" fill="#797979" d="M 104.5,789.5 C 106.048,789.821 106.715,790.821 106.5,792.5C 105.599,791.71 104.932,790.71 104.5,789.5 Z"/></g>
<g><path style="opacity:1" fill="#a3a3a3" d="M 727.5,791.5 C 729.027,791.427 730.027,792.094 730.5,793.5C 728.973,793.573 727.973,792.906 727.5,791.5 Z"/></g>
<g><path style="opacity:1" fill="#9e9e9e" d="M 734.5,795.5 C 736.027,795.427 737.027,796.094 737.5,797.5C 735.973,797.573 734.973,796.906 734.5,795.5 Z"/></g>
<g><path style="opacity:1" fill="#757575" d="M 111.5,801.5 C 113.048,801.821 113.715,802.821 113.5,804.5C 112.599,803.71 111.932,802.71 111.5,801.5 Z"/></g>
<g><path style="opacity:1" fill="#7e7e7e" d="M 115.5,808.5 C 117.048,808.821 117.715,809.821 117.5,811.5C 116.599,810.71 115.932,809.71 115.5,808.5 Z"/></g>
<g><path style="opacity:1" fill="#a3a3a3" d="M 767.5,814.5 C 769.027,814.427 770.027,815.094 770.5,816.5C 768.973,816.573 767.973,815.906 767.5,814.5 Z"/></g>
<g><path style="opacity:1" fill="#9f9f9f" d="M 774.5,818.5 C 776.027,818.427 777.027,819.094 777.5,820.5C 775.973,820.573 774.973,819.906 774.5,818.5 Z"/></g>
<g><path style="opacity:1" fill="#7f7f7f" d="M 122.5,820.5 C 124.048,820.821 124.715,821.821 124.5,823.5C 123.599,822.71 122.932,821.71 122.5,820.5 Z"/></g>
<g><path style="opacity:1" fill="#787878" d="M 125.5,825.5 C 127.048,825.821 127.715,826.821 127.5,828.5C 126.599,827.71 125.932,826.71 125.5,825.5 Z"/></g>
<g><path style="opacity:1" fill="#929292" d="M 788.5,826.5 C 790.027,826.427 791.027,827.094 791.5,828.5C 789.973,828.573 788.973,827.906 788.5,826.5 Z"/></g>
<g><path style="opacity:1" fill="#a5a5a5" d="M 800.5,833.5 C 802.027,833.427 803.027,834.094 803.5,835.5C 801.973,835.573 800.973,834.906 800.5,833.5 Z"/></g>
<g><path style="opacity:1" fill="#818181" d="M 132.5,837.5 C 134.048,837.821 134.715,838.821 134.5,840.5C 133.599,839.71 132.932,838.71 132.5,837.5 Z"/></g>
<g><path style="opacity:1" fill="#7b7b7b" d="M 135.5,842.5 C 137.048,842.821 137.715,843.821 137.5,845.5C 136.599,844.71 135.932,843.71 135.5,842.5 Z"/></g>
<g><path style="opacity:1" fill="#818181" d="M 138.5,847.5 C 140.048,847.821 140.715,848.821 140.5,850.5C 139.599,849.71 138.932,848.71 138.5,847.5 Z"/></g>
<g><path style="opacity:1" fill="#8f8f8f" d="M 140.5,850.5 C 142.011,851.502 143.678,852.169 145.5,852.5C 143.21,853.867 141.544,853.2 140.5,850.5 Z"/></g>
<g><path style="opacity:1" fill="#a4a4a4" d="M 832.5,851.5 C 834.234,852.562 835.901,852.562 837.5,851.5C 835.962,854.048 834.296,854.048 832.5,851.5 Z"/></g>
<g><path style="opacity:1" fill="#959595" d="M 636.5,762.5 C 636.5,832.167 636.5,901.833 636.5,971.5C 538.5,971.5 440.5,971.5 342.5,971.5C 342.5,908.5 342.5,845.5 342.5,782.5C 343.499,844.998 343.832,907.664 343.5,970.5C 440.833,970.5 538.167,970.5 635.5,970.5C 635.167,900.998 635.501,831.665 636.5,762.5 Z"/></g>
<g><path style="opacity:1" fill="#8e8e8e" d="M 506.5,831.5 C 506.027,832.906 505.027,833.573 503.5,833.5C 503.973,832.094 504.973,831.427 506.5,831.5 Z"/></g>
<g><path style="opacity:1" fill="#888888" d="M 471.5,827.5 C 473.5,828.833 475.167,830.5 476.5,832.5C 473.833,831.833 472.167,830.167 471.5,827.5 Z"/></g>
<g><path style="opacity:1" fill="#c0c0c0" d="M 562.5,783.5 C 563.167,783.833 563.833,784.167 564.5,784.5C 564.631,785.376 564.298,786.043 563.5,786.5C 562.614,785.675 562.281,784.675 562.5,783.5 Z"/></g>
</svg>
